M48
;GenerationSoftware,Autodesk,EAGLE,8.7.1*%
;CreationDate,2018-04-17T12:55:15Z*%
FMAT,2
ICI,OFF
METRIC,TZ,000.000
T6C0.350
T5C0.800
T4C0.813
T3C1.000
T2C1.016
T1C1.900
%
G90
M71
T1
X9746Y46101
X2446Y46101
T2
X16891Y36322
X1270Y34290
X1270Y31750
X1270Y26670
X1270Y24130
X1270Y21590
X1270Y19050
X1270Y16510
X1270Y29210
X19050Y16510
X3683Y2413
X19050Y19050
X19050Y21590
X6731Y36322
X9271Y36322
X11811Y36322
X14351Y36322
X48895Y16510
X48895Y19050
X48895Y21590
X48895Y24130
X48895Y26670
X48895Y29210
X48895Y31750
X48895Y34290
X23114Y47498
X28194Y47498
X3683Y7493
T3
X20383Y47625
X12383Y47625
T4
X44196Y37084
X5080Y11938
X2540Y11938
X34290Y36830
X39370Y36830
X12700Y12700
X17780Y12700
X33147Y43688
X28067Y43688
X15240Y3810
X10160Y3810
X22987Y37211
X22987Y34671
X22987Y32131
X22987Y29591
X22987Y27051
X22987Y24511
X22987Y21971
X22987Y19431
X22987Y16891
X22987Y14351
X22987Y11811
X22987Y9271
X22987Y6731
X22987Y39751
X30607Y9271
X30607Y11811
X30607Y14351
X30607Y16891
X30607Y19431
X30607Y21971
X30607Y24511
X30607Y27051
X30607Y29591
X30607Y32131
X30607Y34671
X30607Y37211
X30607Y39751
X30607Y6731
X38989Y44323
X40259Y42418
X41529Y44323
X36830Y19050
X19050Y7620
X19050Y10160
X36322Y4318
X36322Y6858
X40640Y27940
X35560Y27940
X16510Y39370
X16510Y41910
X36830Y21590
X41656Y37084
T5
X4496Y41001
X6896Y42201
X5296Y42201
X16383Y47625
X14383Y47625
X18383Y47625
X7696Y41001
X6096Y41001
T6
X45720Y29210
X44450Y14351
X27940Y22860
X11430Y39370
X8001Y5334
X44450Y31750
X43180Y11938
X43180Y33020
X6731Y30353
X9144Y32258
X13970Y16510
X40640Y19050
X25400Y35560
X7630Y26771
X12700Y22860
X13335Y44069
X28702Y25908
X26670Y21971
X26670Y41910
X45720Y16510
M30