G04 EAGLE Gerber X2 export*
%TF.Part,Single*%
%TF.FileFunction,Other,Silk bottom*%
%TF.FilePolarity,Positive*%
%TF.GenerationSoftware,Autodesk,EAGLE,8.7.1*%
%TF.CreationDate,2018-04-17T12:55:16Z*%
G75*
%MOMM*%
%FSLAX34Y34*%
%LPD*%
%AMOC8*
5,1,8,0,0,1.08239X$1,22.5*%
G01*
%ADD10C,0.000000*%
%ADD11C,0.025400*%
%ADD12C,0.127000*%


D10*
X0Y0D02*
X500000Y0D01*
X500000Y500000D01*
X0Y500000D01*
X0Y0D01*
D11*
X433409Y448014D02*
X434044Y448014D01*
X434044Y445897D01*
X432774Y445897D01*
X432719Y445899D01*
X432663Y445904D01*
X432609Y445913D01*
X432555Y445926D01*
X432502Y445942D01*
X432450Y445961D01*
X432399Y445984D01*
X432351Y446010D01*
X432303Y446040D01*
X432258Y446072D01*
X432216Y446107D01*
X432175Y446145D01*
X432137Y446186D01*
X432102Y446228D01*
X432070Y446273D01*
X432040Y446321D01*
X432014Y446369D01*
X431991Y446420D01*
X431972Y446472D01*
X431956Y446525D01*
X431943Y446579D01*
X431934Y446633D01*
X431929Y446689D01*
X431927Y446744D01*
X431927Y448860D01*
X431929Y448918D01*
X431935Y448975D01*
X431945Y449032D01*
X431958Y449089D01*
X431976Y449144D01*
X431997Y449197D01*
X432022Y449250D01*
X432050Y449300D01*
X432082Y449348D01*
X432117Y449395D01*
X432155Y449438D01*
X432196Y449479D01*
X432239Y449517D01*
X432286Y449552D01*
X432334Y449584D01*
X432384Y449612D01*
X432437Y449637D01*
X432490Y449658D01*
X432545Y449676D01*
X432602Y449689D01*
X432659Y449699D01*
X432716Y449705D01*
X432774Y449707D01*
X434044Y449707D01*
X435828Y449707D02*
X435828Y445897D01*
X437945Y445897D02*
X435828Y449707D01*
X437945Y449707D02*
X437945Y445897D01*
X439730Y445897D02*
X439730Y449707D01*
X440788Y449707D01*
X440852Y449705D01*
X440916Y449699D01*
X440979Y449690D01*
X441041Y449676D01*
X441103Y449659D01*
X441163Y449638D01*
X441222Y449614D01*
X441280Y449586D01*
X441335Y449554D01*
X441389Y449520D01*
X441440Y449482D01*
X441490Y449441D01*
X441536Y449397D01*
X441580Y449351D01*
X441621Y449301D01*
X441659Y449250D01*
X441693Y449196D01*
X441725Y449141D01*
X441753Y449083D01*
X441777Y449024D01*
X441798Y448964D01*
X441815Y448902D01*
X441829Y448840D01*
X441838Y448777D01*
X441844Y448713D01*
X441846Y448649D01*
X441846Y446955D01*
X441844Y446891D01*
X441838Y446827D01*
X441829Y446764D01*
X441815Y446702D01*
X441798Y446640D01*
X441777Y446580D01*
X441753Y446521D01*
X441725Y446463D01*
X441693Y446408D01*
X441659Y446354D01*
X441621Y446303D01*
X441580Y446253D01*
X441536Y446207D01*
X441490Y446163D01*
X441440Y446122D01*
X441389Y446084D01*
X441335Y446050D01*
X441280Y446018D01*
X441222Y445990D01*
X441163Y445966D01*
X441103Y445945D01*
X441041Y445928D01*
X440979Y445914D01*
X440916Y445905D01*
X440852Y445899D01*
X440788Y445897D01*
X439730Y445897D01*
X411607Y416687D02*
X412877Y412877D01*
X414147Y416687D01*
X415437Y415417D02*
X415437Y412877D01*
X415331Y416475D02*
X415331Y416687D01*
X415543Y416687D01*
X415543Y416475D01*
X415331Y416475D01*
X417029Y415417D02*
X417029Y412877D01*
X417029Y415417D02*
X418087Y415417D01*
X418134Y415415D01*
X418182Y415410D01*
X418228Y415401D01*
X418274Y415389D01*
X418319Y415373D01*
X418363Y415354D01*
X418405Y415332D01*
X418445Y415307D01*
X418483Y415278D01*
X418519Y415247D01*
X418552Y415214D01*
X418583Y415178D01*
X418612Y415140D01*
X418637Y415100D01*
X418659Y415058D01*
X418678Y415014D01*
X418694Y414969D01*
X418706Y414923D01*
X418715Y414877D01*
X418720Y414829D01*
X418722Y414782D01*
X418722Y412877D01*
X364617Y448437D02*
X363347Y452247D01*
X365887Y452247D02*
X364617Y448437D01*
X367184Y449284D02*
X367184Y450130D01*
X367186Y450187D01*
X367192Y450243D01*
X367201Y450299D01*
X367214Y450354D01*
X367231Y450408D01*
X367251Y450461D01*
X367275Y450512D01*
X367302Y450562D01*
X367333Y450609D01*
X367366Y450655D01*
X367403Y450698D01*
X367442Y450739D01*
X367484Y450777D01*
X367529Y450812D01*
X367575Y450844D01*
X367624Y450873D01*
X367674Y450898D01*
X367727Y450920D01*
X367780Y450939D01*
X367835Y450954D01*
X367890Y450965D01*
X367946Y450973D01*
X368003Y450977D01*
X368059Y450977D01*
X368116Y450973D01*
X368172Y450965D01*
X368227Y450954D01*
X368282Y450939D01*
X368335Y450920D01*
X368388Y450898D01*
X368438Y450873D01*
X368487Y450844D01*
X368533Y450812D01*
X368578Y450777D01*
X368620Y450739D01*
X368659Y450698D01*
X368696Y450655D01*
X368729Y450609D01*
X368760Y450562D01*
X368787Y450512D01*
X368811Y450461D01*
X368831Y450408D01*
X368848Y450354D01*
X368861Y450299D01*
X368870Y450243D01*
X368876Y450187D01*
X368878Y450130D01*
X368877Y450130D02*
X368877Y449284D01*
X368878Y449284D02*
X368876Y449227D01*
X368870Y449171D01*
X368861Y449115D01*
X368848Y449060D01*
X368831Y449006D01*
X368811Y448953D01*
X368787Y448902D01*
X368760Y448852D01*
X368729Y448805D01*
X368696Y448759D01*
X368659Y448716D01*
X368620Y448675D01*
X368578Y448637D01*
X368533Y448602D01*
X368487Y448570D01*
X368438Y448541D01*
X368388Y448516D01*
X368335Y448494D01*
X368282Y448475D01*
X368227Y448460D01*
X368172Y448449D01*
X368116Y448441D01*
X368059Y448437D01*
X368003Y448437D01*
X367946Y448441D01*
X367890Y448449D01*
X367835Y448460D01*
X367780Y448475D01*
X367727Y448494D01*
X367674Y448516D01*
X367624Y448541D01*
X367575Y448570D01*
X367529Y448602D01*
X367484Y448637D01*
X367442Y448675D01*
X367403Y448716D01*
X367366Y448759D01*
X367333Y448805D01*
X367302Y448852D01*
X367275Y448902D01*
X367251Y448953D01*
X367231Y449006D01*
X367214Y449060D01*
X367201Y449115D01*
X367192Y449171D01*
X367186Y449227D01*
X367184Y449284D01*
X370476Y449072D02*
X370476Y450977D01*
X370476Y449072D02*
X370478Y449025D01*
X370483Y448977D01*
X370492Y448931D01*
X370504Y448885D01*
X370520Y448840D01*
X370539Y448796D01*
X370561Y448755D01*
X370586Y448714D01*
X370615Y448676D01*
X370646Y448640D01*
X370679Y448607D01*
X370715Y448576D01*
X370753Y448547D01*
X370794Y448522D01*
X370835Y448500D01*
X370879Y448481D01*
X370924Y448465D01*
X370970Y448453D01*
X371016Y448444D01*
X371064Y448439D01*
X371111Y448437D01*
X372169Y448437D01*
X372169Y450977D01*
X373465Y450977D02*
X374735Y450977D01*
X373889Y452247D02*
X373889Y449072D01*
X373891Y449025D01*
X373896Y448977D01*
X373905Y448931D01*
X373917Y448885D01*
X373933Y448840D01*
X373952Y448796D01*
X373974Y448755D01*
X373999Y448714D01*
X374028Y448676D01*
X374059Y448640D01*
X374092Y448607D01*
X374128Y448576D01*
X374166Y448547D01*
X374207Y448522D01*
X374248Y448500D01*
X374292Y448481D01*
X374337Y448465D01*
X374383Y448453D01*
X374429Y448444D01*
X374477Y448439D01*
X374524Y448437D01*
X374735Y448437D01*
D12*
X99960Y498510D02*
X21960Y498510D01*
X21960Y408510D02*
X99960Y408510D01*
X99960Y498510D01*
X21960Y498510D02*
X21960Y408510D01*
X95960Y453510D02*
X90960Y493510D01*
X80960Y493510D01*
X75960Y453510D01*
X25960Y448510D02*
X30960Y493510D01*
X40960Y493510D01*
X45960Y448510D01*
X68460Y443510D02*
X73460Y493510D01*
X68460Y443510D02*
X53460Y443510D01*
X48460Y493510D01*
M02*
